<mxfile host="app.diagrams.net" modified="2024-05-25T17:18:23.085Z" agent="Mozilla/5.0 (Windows NT 10.0; Win64; x64) AppleWebKit/537.36 (KHTML, like Gecko) Chrome/123.0.0.0 Safari/537.36 OPR/109.0.0.0" etag="0heZTdZ0i9vpbOIeNuAT" version="24.2.2" type="device">
  <diagram name="Страница — 1" id="Mr-a5qJRFT9egZu9b4EL">
    <mxGraphModel dx="841" dy="493" grid="1" gridSize="1" guides="1" tooltips="1" connect="1" arrows="1" fold="1" page="1" pageScale="1" pageWidth="827" pageHeight="1169" math="0" shadow="0">
      <root>
        <mxCell id="0" />
        <mxCell id="1" parent="0" />
        <mxCell id="11bJmfyxsHX5v0_lypsA-49" value="&lt;font style=&quot;font-size: 32px;&quot;&gt;F&amp;nbsp;&lt;/font&gt;" style="ellipse;whiteSpace=wrap;html=1;aspect=fixed;" vertex="1" parent="1">
          <mxGeometry x="260" y="120" width="80" height="80" as="geometry" />
        </mxCell>
        <mxCell id="11bJmfyxsHX5v0_lypsA-50" value="&lt;font style=&quot;font-size: 32px;&quot;&gt;I&amp;nbsp;&lt;/font&gt;" style="ellipse;whiteSpace=wrap;html=1;aspect=fixed;" vertex="1" parent="1">
          <mxGeometry x="260" y="220" width="80" height="80" as="geometry" />
        </mxCell>
        <mxCell id="11bJmfyxsHX5v0_lypsA-51" value="&lt;font style=&quot;font-size: 32px;&quot;&gt;G&amp;nbsp;&lt;/font&gt;" style="ellipse;whiteSpace=wrap;html=1;aspect=fixed;" vertex="1" parent="1">
          <mxGeometry x="260" y="320" width="80" height="80" as="geometry" />
        </mxCell>
        <mxCell id="11bJmfyxsHX5v0_lypsA-52" value="&lt;font style=&quot;font-size: 32px;&quot;&gt;O&amp;nbsp;&lt;/font&gt;" style="ellipse;whiteSpace=wrap;html=1;aspect=fixed;" vertex="1" parent="1">
          <mxGeometry x="260" y="420" width="80" height="80" as="geometry" />
        </mxCell>
        <mxCell id="11bJmfyxsHX5v0_lypsA-53" value="&lt;font style=&quot;font-size: 24px;&quot;&gt;X&lt;/font&gt;" style="text;html=1;align=center;verticalAlign=middle;whiteSpace=wrap;rounded=0;" vertex="1" parent="1">
          <mxGeometry x="60" y="390" width="60" height="30" as="geometry" />
        </mxCell>
        <mxCell id="11bJmfyxsHX5v0_lypsA-54" value="&lt;font style=&quot;font-size: 18px;&quot;&gt;t&lt;/font&gt;" style="text;html=1;align=center;verticalAlign=middle;whiteSpace=wrap;rounded=0;" vertex="1" parent="1">
          <mxGeometry x="75" y="398" width="60" height="30" as="geometry" />
        </mxCell>
        <mxCell id="11bJmfyxsHX5v0_lypsA-55" value="" style="endArrow=classic;html=1;rounded=0;exitX=1;exitY=0.5;exitDx=0;exitDy=0;entryX=0;entryY=0.5;entryDx=0;entryDy=0;" edge="1" parent="1" source="11bJmfyxsHX5v0_lypsA-53" target="11bJmfyxsHX5v0_lypsA-51">
          <mxGeometry width="50" height="50" relative="1" as="geometry">
            <mxPoint x="280" y="410" as="sourcePoint" />
            <mxPoint x="330" y="360" as="targetPoint" />
          </mxGeometry>
        </mxCell>
        <mxCell id="11bJmfyxsHX5v0_lypsA-56" value="" style="endArrow=classic;html=1;rounded=0;exitX=1;exitY=0.5;exitDx=0;exitDy=0;entryX=0;entryY=0.5;entryDx=0;entryDy=0;" edge="1" parent="1" source="11bJmfyxsHX5v0_lypsA-53" target="11bJmfyxsHX5v0_lypsA-52">
          <mxGeometry width="50" height="50" relative="1" as="geometry">
            <mxPoint x="160" y="460" as="sourcePoint" />
            <mxPoint x="210" y="410" as="targetPoint" />
          </mxGeometry>
        </mxCell>
        <mxCell id="11bJmfyxsHX5v0_lypsA-57" value="" style="endArrow=classic;html=1;rounded=0;exitX=1;exitY=0.5;exitDx=0;exitDy=0;entryX=0;entryY=1;entryDx=0;entryDy=0;" edge="1" parent="1" source="11bJmfyxsHX5v0_lypsA-53" target="11bJmfyxsHX5v0_lypsA-50">
          <mxGeometry width="50" height="50" relative="1" as="geometry">
            <mxPoint x="160" y="300" as="sourcePoint" />
            <mxPoint x="210" y="250" as="targetPoint" />
          </mxGeometry>
        </mxCell>
        <mxCell id="11bJmfyxsHX5v0_lypsA-58" value="" style="endArrow=classic;html=1;rounded=0;exitX=1;exitY=0.5;exitDx=0;exitDy=0;entryX=0;entryY=1;entryDx=0;entryDy=0;" edge="1" parent="1" source="11bJmfyxsHX5v0_lypsA-53" target="11bJmfyxsHX5v0_lypsA-49">
          <mxGeometry width="50" height="50" relative="1" as="geometry">
            <mxPoint x="160" y="340" as="sourcePoint" />
            <mxPoint x="210" y="290" as="targetPoint" />
          </mxGeometry>
        </mxCell>
        <mxCell id="11bJmfyxsHX5v0_lypsA-59" value="&lt;font style=&quot;font-size: 24px;&quot;&gt;H&lt;/font&gt;" style="text;html=1;align=center;verticalAlign=middle;whiteSpace=wrap;rounded=0;" vertex="1" parent="1">
          <mxGeometry x="30" y="200" width="90" height="30" as="geometry" />
        </mxCell>
        <mxCell id="11bJmfyxsHX5v0_lypsA-60" value="" style="endArrow=classic;html=1;rounded=0;exitX=1;exitY=0.5;exitDx=0;exitDy=0;entryX=0;entryY=0.5;entryDx=0;entryDy=0;" edge="1" parent="1" source="11bJmfyxsHX5v0_lypsA-59" target="11bJmfyxsHX5v0_lypsA-49">
          <mxGeometry width="50" height="50" relative="1" as="geometry">
            <mxPoint x="-10" y="330" as="sourcePoint" />
            <mxPoint x="40" y="280" as="targetPoint" />
          </mxGeometry>
        </mxCell>
        <mxCell id="11bJmfyxsHX5v0_lypsA-61" value="" style="endArrow=classic;html=1;rounded=0;exitX=1;exitY=0.5;exitDx=0;exitDy=0;entryX=0;entryY=0.5;entryDx=0;entryDy=0;" edge="1" parent="1" source="11bJmfyxsHX5v0_lypsA-59" target="11bJmfyxsHX5v0_lypsA-50">
          <mxGeometry width="50" height="50" relative="1" as="geometry">
            <mxPoint x="-10" y="330" as="sourcePoint" />
            <mxPoint x="40" y="280" as="targetPoint" />
          </mxGeometry>
        </mxCell>
        <mxCell id="11bJmfyxsHX5v0_lypsA-62" value="" style="endArrow=classic;html=1;rounded=0;exitX=1;exitY=0.5;exitDx=0;exitDy=0;entryX=0;entryY=0;entryDx=0;entryDy=0;" edge="1" parent="1" source="11bJmfyxsHX5v0_lypsA-59" target="11bJmfyxsHX5v0_lypsA-51">
          <mxGeometry width="50" height="50" relative="1" as="geometry">
            <mxPoint x="-10" y="330" as="sourcePoint" />
            <mxPoint x="40" y="280" as="targetPoint" />
          </mxGeometry>
        </mxCell>
        <mxCell id="11bJmfyxsHX5v0_lypsA-63" value="" style="endArrow=classic;html=1;rounded=0;exitX=1;exitY=0.5;exitDx=0;exitDy=0;entryX=0;entryY=0;entryDx=0;entryDy=0;" edge="1" parent="1" source="11bJmfyxsHX5v0_lypsA-59" target="11bJmfyxsHX5v0_lypsA-52">
          <mxGeometry width="50" height="50" relative="1" as="geometry">
            <mxPoint x="-10" y="330" as="sourcePoint" />
            <mxPoint x="40" y="280" as="targetPoint" />
          </mxGeometry>
        </mxCell>
        <mxCell id="11bJmfyxsHX5v0_lypsA-64" value="&lt;font style=&quot;font-size: 18px;&quot;&gt;t-1&lt;/font&gt;" style="text;html=1;align=center;verticalAlign=middle;whiteSpace=wrap;rounded=0;" vertex="1" parent="1">
          <mxGeometry x="70" y="210" width="60" height="30" as="geometry" />
        </mxCell>
        <mxCell id="11bJmfyxsHX5v0_lypsA-65" value="&lt;font style=&quot;font-size: 32px;&quot;&gt;C&amp;nbsp;&lt;/font&gt;" style="ellipse;whiteSpace=wrap;html=1;aspect=fixed;" vertex="1" parent="1">
          <mxGeometry x="414" y="220" width="80" height="80" as="geometry" />
        </mxCell>
        <mxCell id="11bJmfyxsHX5v0_lypsA-66" value="&lt;span style=&quot;font-size: 24px;&quot;&gt;C&lt;/span&gt;" style="text;html=1;align=center;verticalAlign=middle;whiteSpace=wrap;rounded=0;" vertex="1" parent="1">
          <mxGeometry x="30" y="50" width="90" height="30" as="geometry" />
        </mxCell>
        <mxCell id="11bJmfyxsHX5v0_lypsA-67" value="&lt;font style=&quot;font-size: 18px;&quot;&gt;t-1&lt;/font&gt;" style="text;html=1;align=center;verticalAlign=middle;whiteSpace=wrap;rounded=0;" vertex="1" parent="1">
          <mxGeometry x="70" y="60" width="60" height="30" as="geometry" />
        </mxCell>
        <mxCell id="11bJmfyxsHX5v0_lypsA-69" value="" style="endArrow=classic;html=1;rounded=0;exitX=1;exitY=0.5;exitDx=0;exitDy=0;entryX=0.5;entryY=0;entryDx=0;entryDy=0;" edge="1" parent="1" source="11bJmfyxsHX5v0_lypsA-66" target="11bJmfyxsHX5v0_lypsA-65">
          <mxGeometry width="50" height="50" relative="1" as="geometry">
            <mxPoint x="150" y="170" as="sourcePoint" />
            <mxPoint x="200" y="120" as="targetPoint" />
            <Array as="points">
              <mxPoint x="380" y="64" />
            </Array>
          </mxGeometry>
        </mxCell>
        <mxCell id="11bJmfyxsHX5v0_lypsA-70" value="&lt;font style=&quot;font-size: 24px;&quot;&gt;t&lt;/font&gt;" style="text;html=1;align=center;verticalAlign=middle;whiteSpace=wrap;rounded=0;" vertex="1" parent="1">
          <mxGeometry x="438" y="252" width="60" height="30" as="geometry" />
        </mxCell>
        <mxCell id="11bJmfyxsHX5v0_lypsA-71" value="" style="endArrow=classic;html=1;rounded=0;exitX=1;exitY=0.5;exitDx=0;exitDy=0;entryX=0;entryY=0;entryDx=0;entryDy=0;" edge="1" parent="1" source="11bJmfyxsHX5v0_lypsA-49" target="11bJmfyxsHX5v0_lypsA-65">
          <mxGeometry width="50" height="50" relative="1" as="geometry">
            <mxPoint x="380" y="160" as="sourcePoint" />
            <mxPoint x="430" y="110" as="targetPoint" />
          </mxGeometry>
        </mxCell>
        <mxCell id="11bJmfyxsHX5v0_lypsA-72" value="" style="endArrow=classic;html=1;rounded=0;exitX=1;exitY=0.5;exitDx=0;exitDy=0;entryX=0;entryY=0.5;entryDx=0;entryDy=0;" edge="1" parent="1" source="11bJmfyxsHX5v0_lypsA-50" target="11bJmfyxsHX5v0_lypsA-65">
          <mxGeometry width="50" height="50" relative="1" as="geometry">
            <mxPoint x="380" y="160" as="sourcePoint" />
            <mxPoint x="430" y="110" as="targetPoint" />
          </mxGeometry>
        </mxCell>
        <mxCell id="11bJmfyxsHX5v0_lypsA-73" value="" style="endArrow=classic;html=1;rounded=0;exitX=1;exitY=0.5;exitDx=0;exitDy=0;entryX=0;entryY=1;entryDx=0;entryDy=0;" edge="1" parent="1" source="11bJmfyxsHX5v0_lypsA-51" target="11bJmfyxsHX5v0_lypsA-65">
          <mxGeometry width="50" height="50" relative="1" as="geometry">
            <mxPoint x="350" y="350" as="sourcePoint" />
            <mxPoint x="430" y="250" as="targetPoint" />
          </mxGeometry>
        </mxCell>
        <mxCell id="11bJmfyxsHX5v0_lypsA-74" value="&lt;font style=&quot;font-size: 32px;&quot;&gt;F&amp;nbsp; &amp;nbsp;&amp;nbsp;&lt;/font&gt;" style="ellipse;whiteSpace=wrap;html=1;aspect=fixed;strokeColor=#808080;fontColor=#808080;" vertex="1" parent="1">
          <mxGeometry x="620" y="310" width="80" height="80" as="geometry" />
        </mxCell>
        <mxCell id="11bJmfyxsHX5v0_lypsA-75" value="&lt;font style=&quot;font-size: 32px;&quot;&gt;I&amp;nbsp; &amp;nbsp;&amp;nbsp;&lt;/font&gt;" style="ellipse;whiteSpace=wrap;html=1;aspect=fixed;strokeColor=#808080;fontColor=#808080;" vertex="1" parent="1">
          <mxGeometry x="620" y="394" width="80" height="80" as="geometry" />
        </mxCell>
        <mxCell id="11bJmfyxsHX5v0_lypsA-76" value="&lt;font style=&quot;font-size: 32px;&quot;&gt;G&amp;nbsp; &amp;nbsp;&amp;nbsp;&lt;/font&gt;" style="ellipse;whiteSpace=wrap;html=1;aspect=fixed;strokeColor=#808080;fontColor=#808080;" vertex="1" parent="1">
          <mxGeometry x="620" y="479" width="80" height="80" as="geometry" />
        </mxCell>
        <mxCell id="11bJmfyxsHX5v0_lypsA-77" value="&lt;font style=&quot;font-size: 32px;&quot;&gt;O&amp;nbsp; &amp;nbsp;&amp;nbsp;&lt;/font&gt;" style="ellipse;whiteSpace=wrap;html=1;aspect=fixed;strokeColor=#808080;fontColor=#808080;" vertex="1" parent="1">
          <mxGeometry x="620" y="565" width="80" height="80" as="geometry" />
        </mxCell>
        <mxCell id="11bJmfyxsHX5v0_lypsA-78" value="&lt;font style=&quot;font-size: 24px;&quot;&gt;t&lt;/font&gt;" style="text;html=1;align=center;verticalAlign=middle;whiteSpace=wrap;rounded=0;" vertex="1" parent="1">
          <mxGeometry x="280" y="155" width="60" height="30" as="geometry" />
        </mxCell>
        <mxCell id="11bJmfyxsHX5v0_lypsA-79" value="&lt;font style=&quot;font-size: 24px;&quot;&gt;t&lt;/font&gt;" style="text;html=1;align=center;verticalAlign=middle;whiteSpace=wrap;rounded=0;" vertex="1" parent="1">
          <mxGeometry x="273" y="252" width="60" height="30" as="geometry" />
        </mxCell>
        <mxCell id="11bJmfyxsHX5v0_lypsA-80" value="&lt;font style=&quot;font-size: 24px;&quot;&gt;t&lt;/font&gt;" style="text;html=1;align=center;verticalAlign=middle;whiteSpace=wrap;rounded=0;" vertex="1" parent="1">
          <mxGeometry x="282" y="352" width="60" height="30" as="geometry" />
        </mxCell>
        <mxCell id="11bJmfyxsHX5v0_lypsA-81" value="&lt;font style=&quot;font-size: 24px;&quot;&gt;t&lt;/font&gt;" style="text;html=1;align=center;verticalAlign=middle;whiteSpace=wrap;rounded=0;" vertex="1" parent="1">
          <mxGeometry x="282" y="450" width="60" height="30" as="geometry" />
        </mxCell>
        <mxCell id="11bJmfyxsHX5v0_lypsA-82" value="" style="endArrow=classic;html=1;rounded=0;exitX=1;exitY=0.5;exitDx=0;exitDy=0;entryX=0;entryY=1;entryDx=0;entryDy=0;" edge="1" parent="1" source="11bJmfyxsHX5v0_lypsA-52" target="11bJmfyxsHX5v0_lypsA-83">
          <mxGeometry width="50" height="50" relative="1" as="geometry">
            <mxPoint x="380" y="320" as="sourcePoint" />
            <mxPoint x="430" y="270" as="targetPoint" />
          </mxGeometry>
        </mxCell>
        <mxCell id="11bJmfyxsHX5v0_lypsA-83" value="&lt;font style=&quot;font-size: 32px;&quot;&gt;H&amp;nbsp;&lt;/font&gt;" style="ellipse;whiteSpace=wrap;html=1;aspect=fixed;" vertex="1" parent="1">
          <mxGeometry x="540" y="220" width="80" height="80" as="geometry" />
        </mxCell>
        <mxCell id="11bJmfyxsHX5v0_lypsA-84" value="&lt;font style=&quot;font-size: 24px;&quot;&gt;t&lt;/font&gt;" style="text;html=1;align=center;verticalAlign=middle;whiteSpace=wrap;rounded=0;" vertex="1" parent="1">
          <mxGeometry x="564" y="252" width="60" height="30" as="geometry" />
        </mxCell>
        <mxCell id="11bJmfyxsHX5v0_lypsA-85" value="" style="endArrow=classic;html=1;rounded=0;entryX=0;entryY=0.5;entryDx=0;entryDy=0;exitX=1;exitY=0.5;exitDx=0;exitDy=0;" edge="1" parent="1" source="11bJmfyxsHX5v0_lypsA-65" target="11bJmfyxsHX5v0_lypsA-83">
          <mxGeometry width="50" height="50" relative="1" as="geometry">
            <mxPoint x="500" y="290" as="sourcePoint" />
            <mxPoint x="530" y="210" as="targetPoint" />
          </mxGeometry>
        </mxCell>
        <mxCell id="11bJmfyxsHX5v0_lypsA-86" value="&lt;font color=&quot;#808080&quot; style=&quot;font-size: 32px;&quot;&gt;C&amp;nbsp; &amp;nbsp;&amp;nbsp;&lt;/font&gt;" style="ellipse;whiteSpace=wrap;html=1;aspect=fixed;strokeColor=#666666;" vertex="1" parent="1">
          <mxGeometry x="618" y="35" width="80" height="80" as="geometry" />
        </mxCell>
        <mxCell id="11bJmfyxsHX5v0_lypsA-87" value="&lt;font color=&quot;#808080&quot; style=&quot;font-size: 24px;&quot;&gt;t+1&lt;/font&gt;" style="text;html=1;align=center;verticalAlign=middle;whiteSpace=wrap;rounded=0;strokeColor=none;" vertex="1" parent="1">
          <mxGeometry x="642" y="67" width="60" height="30" as="geometry" />
        </mxCell>
        <mxCell id="11bJmfyxsHX5v0_lypsA-88" value="&lt;font style=&quot;font-size: 24px;&quot;&gt;t+1&lt;/font&gt;" style="text;html=1;align=center;verticalAlign=middle;whiteSpace=wrap;rounded=0;strokeColor=none;fontColor=#808080;" vertex="1" parent="1">
          <mxGeometry x="640" y="344" width="60" height="30" as="geometry" />
        </mxCell>
        <mxCell id="11bJmfyxsHX5v0_lypsA-89" value="&lt;font style=&quot;font-size: 24px;&quot;&gt;t+1&lt;/font&gt;" style="text;html=1;align=center;verticalAlign=middle;whiteSpace=wrap;rounded=0;strokeColor=none;fontColor=#808080;" vertex="1" parent="1">
          <mxGeometry x="639" y="428" width="60" height="30" as="geometry" />
        </mxCell>
        <mxCell id="11bJmfyxsHX5v0_lypsA-90" value="&lt;font style=&quot;font-size: 24px;&quot;&gt;t+1&lt;/font&gt;" style="text;html=1;align=center;verticalAlign=middle;whiteSpace=wrap;rounded=0;strokeColor=none;fontColor=#808080;" vertex="1" parent="1">
          <mxGeometry x="644" y="513" width="60" height="30" as="geometry" />
        </mxCell>
        <mxCell id="11bJmfyxsHX5v0_lypsA-91" value="&lt;font style=&quot;font-size: 24px;&quot;&gt;t+1&lt;/font&gt;" style="text;html=1;align=center;verticalAlign=middle;whiteSpace=wrap;rounded=0;strokeColor=none;fontColor=#808080;" vertex="1" parent="1">
          <mxGeometry x="643" y="598" width="60" height="30" as="geometry" />
        </mxCell>
        <mxCell id="11bJmfyxsHX5v0_lypsA-92" value="&lt;font style=&quot;font-size: 32px;&quot;&gt;Y&amp;nbsp;&lt;/font&gt;" style="ellipse;whiteSpace=wrap;html=1;aspect=fixed;" vertex="1" parent="1">
          <mxGeometry x="670" y="220" width="80" height="80" as="geometry" />
        </mxCell>
        <mxCell id="11bJmfyxsHX5v0_lypsA-93" value="&lt;font style=&quot;font-size: 24px;&quot;&gt;t&lt;/font&gt;" style="text;html=1;align=center;verticalAlign=middle;whiteSpace=wrap;rounded=0;" vertex="1" parent="1">
          <mxGeometry x="694" y="252" width="60" height="30" as="geometry" />
        </mxCell>
        <mxCell id="11bJmfyxsHX5v0_lypsA-94" value="" style="endArrow=classic;html=1;rounded=0;exitX=1;exitY=0.5;exitDx=0;exitDy=0;entryX=0;entryY=0.5;entryDx=0;entryDy=0;" edge="1" parent="1" source="11bJmfyxsHX5v0_lypsA-83" target="11bJmfyxsHX5v0_lypsA-92">
          <mxGeometry width="50" height="50" relative="1" as="geometry">
            <mxPoint x="460" y="420" as="sourcePoint" />
            <mxPoint x="510" y="370" as="targetPoint" />
          </mxGeometry>
        </mxCell>
        <mxCell id="11bJmfyxsHX5v0_lypsA-95" value="" style="endArrow=classic;html=1;rounded=0;exitX=0.5;exitY=1;exitDx=0;exitDy=0;entryX=0;entryY=0.5;entryDx=0;entryDy=0;" edge="1" parent="1" source="11bJmfyxsHX5v0_lypsA-83" target="11bJmfyxsHX5v0_lypsA-74">
          <mxGeometry width="50" height="50" relative="1" as="geometry">
            <mxPoint x="610" y="470" as="sourcePoint" />
            <mxPoint x="660" y="420" as="targetPoint" />
            <Array as="points">
              <mxPoint x="580" y="350" />
            </Array>
          </mxGeometry>
        </mxCell>
        <mxCell id="11bJmfyxsHX5v0_lypsA-96" value="" style="endArrow=classic;html=1;rounded=0;exitX=0.5;exitY=1;exitDx=0;exitDy=0;entryX=0;entryY=0.5;entryDx=0;entryDy=0;" edge="1" parent="1" source="11bJmfyxsHX5v0_lypsA-83" target="11bJmfyxsHX5v0_lypsA-75">
          <mxGeometry width="50" height="50" relative="1" as="geometry">
            <mxPoint x="610" y="420" as="sourcePoint" />
            <mxPoint x="660" y="370" as="targetPoint" />
            <Array as="points">
              <mxPoint x="580" y="434" />
            </Array>
          </mxGeometry>
        </mxCell>
        <mxCell id="11bJmfyxsHX5v0_lypsA-97" value="" style="endArrow=classic;html=1;rounded=0;exitX=0.5;exitY=1;exitDx=0;exitDy=0;entryX=0;entryY=0.5;entryDx=0;entryDy=0;" edge="1" parent="1" source="11bJmfyxsHX5v0_lypsA-83" target="11bJmfyxsHX5v0_lypsA-76">
          <mxGeometry width="50" height="50" relative="1" as="geometry">
            <mxPoint x="610" y="420" as="sourcePoint" />
            <mxPoint x="660" y="370" as="targetPoint" />
            <Array as="points">
              <mxPoint x="580" y="519" />
            </Array>
          </mxGeometry>
        </mxCell>
        <mxCell id="11bJmfyxsHX5v0_lypsA-98" value="" style="endArrow=classic;html=1;rounded=0;exitX=0.5;exitY=1;exitDx=0;exitDy=0;entryX=0;entryY=0.5;entryDx=0;entryDy=0;" edge="1" parent="1" source="11bJmfyxsHX5v0_lypsA-83" target="11bJmfyxsHX5v0_lypsA-77">
          <mxGeometry width="50" height="50" relative="1" as="geometry">
            <mxPoint x="610" y="420" as="sourcePoint" />
            <mxPoint x="660" y="370" as="targetPoint" />
            <Array as="points">
              <mxPoint x="580" y="605" />
            </Array>
          </mxGeometry>
        </mxCell>
        <mxCell id="11bJmfyxsHX5v0_lypsA-99" value="" style="endArrow=classic;html=1;rounded=0;exitX=1;exitY=0;exitDx=0;exitDy=0;entryX=0.103;entryY=0.864;entryDx=0;entryDy=0;entryPerimeter=0;" edge="1" parent="1" source="11bJmfyxsHX5v0_lypsA-65" target="11bJmfyxsHX5v0_lypsA-86">
          <mxGeometry width="50" height="50" relative="1" as="geometry">
            <mxPoint x="448" y="219" as="sourcePoint" />
            <mxPoint x="498" y="169" as="targetPoint" />
          </mxGeometry>
        </mxCell>
      </root>
    </mxGraphModel>
  </diagram>
</mxfile>
